<?xml version="1.0" encoding="UTF-8" standalone="no"?>
<!DOCTYPE svg PUBLIC "-//W3C//DTD SVG 1.1//EN"
 "http://www.w3.org/Graphics/SVG/1.1/DTD/svg11.dtd">
<!-- Generated by graphviz version 2.34.0 (20140110.0949)
 -->
<!-- Title: models_diagram Pages: 1 -->
<svg width="510pt" height="484pt"
 viewBox="0.00 0.00 510.00 484.00" xmlns="http://www.w3.org/2000/svg" xmlns:xlink="http://www.w3.org/1999/xlink">
<g id="graph0" class="graph" transform="scale(1 1) rotate(0) translate(4 480)">
<title>models_diagram</title>
<polygon fill="white" stroke="white" points="-4,4 -4,-480 506,-480 506,4 -4,4"/>
<!-- r5 -->
<g id="node1" class="node"><title>r5</title>
<ellipse fill="none" stroke="black" cx="169" cy="-458" rx="30.3206" ry="18"/>
<text text-anchor="middle" x="169" y="-454.3" font-family="Times,serif" font-size="14.00">fib(5)</text>
</g>
<!-- r53 -->
<g id="node2" class="node"><title>r53</title>
<ellipse fill="none" stroke="black" cx="115" cy="-348" rx="30.3206" ry="18"/>
<text text-anchor="middle" x="115" y="-344.3" font-family="Times,serif" font-size="14.00">fib(3)</text>
</g>
<!-- r5&#45;&gt;r53 -->
<g id="edge2" class="edge"><title>r5&#45;&gt;r53:nw</title>
<path fill="none" stroke="black" d="M147.882,-444.552C121.316,-427.559 80.6869,-396.374 94.0697,-371.502"/>
<polygon fill="black" stroke="black" points="96.3973,-373.066 99,-365 91.9351,-369.683 96.3973,-373.066"/>
</g>
<!-- r54 -->
<g id="node3" class="node"><title>r54</title>
<ellipse fill="none" stroke="black" cx="234" cy="-348" rx="30.3206" ry="18"/>
<text text-anchor="middle" x="234" y="-344.3" font-family="Times,serif" font-size="14.00">fib(4)</text>
</g>
<!-- r5&#45;&gt;r54 -->
<g id="edge3" class="edge"><title>r5&#45;&gt;r54:ne</title>
<path fill="none" stroke="black" d="M191.454,-445.687C221.478,-429.298 269.367,-398.021 255.034,-371.6"/>
<polygon fill="black" stroke="black" points="257.078,-369.663 250,-365 252.625,-373.059 257.078,-369.663"/>
</g>
<!-- r53&#45;&gt;r5 -->
<g id="edge1" class="edge"><title>r53&#45;&gt;r5</title>
<path fill="none" stroke="blue" d="M123.279,-365.557C132.31,-383.62 146.845,-412.691 157.099,-433.198"/>
<polygon fill="blue" stroke="blue" points="154.716,-434.694 160.799,-440.597 159.725,-432.189 154.716,-434.694"/>
<text text-anchor="middle" x="145.132" y="-424.465" font-family="Times,serif" font-size="14.00" fill="blue">2</text>
</g>
<!-- r531 -->
<g id="node4" class="node"><title>r531</title>
<ellipse fill="none" stroke="black" cx="30" cy="-238" rx="30.3206" ry="18"/>
<text text-anchor="middle" x="30" y="-234.3" font-family="Times,serif" font-size="14.00">fib(1)</text>
</g>
<!-- r53&#45;&gt;r531 -->
<g id="edge5" class="edge"><title>r53&#45;&gt;r531:nw</title>
<path fill="none" stroke="black" d="M90.1079,-337.388C53.5834,-322.085 -8.41439,-290.882 9.03326,-261.285"/>
<polygon fill="black" stroke="black" points="11.2367,-263.013 14,-255 6.84297,-259.541 11.2367,-263.013"/>
</g>
<!-- r532 -->
<g id="node5" class="node"><title>r532</title>
<ellipse fill="none" stroke="black" cx="109" cy="-238" rx="30.3206" ry="18"/>
<text text-anchor="middle" x="109" y="-234.3" font-family="Times,serif" font-size="14.00">fib(2)</text>
</g>
<!-- r53&#45;&gt;r532 -->
<g id="edge7" class="edge"><title>r53&#45;&gt;r532:ne</title>
<path fill="none" stroke="black" d="M123.67,-330.456C132.212,-311.861 142.343,-281.636 130.06,-261.435"/>
<polygon fill="black" stroke="black" points="132.146,-259.558 125,-255 127.744,-263.02 132.146,-259.558"/>
</g>
<!-- r54&#45;&gt;r5 -->
<g id="edge4" class="edge"><title>r54&#45;&gt;r5</title>
<path fill="none" stroke="blue" d="M224.248,-365.203C213.306,-383.384 195.464,-413.03 183.026,-433.695"/>
<polygon fill="blue" stroke="blue" points="180.598,-432.299 178.872,-440.597 185.396,-435.187 180.598,-432.299"/>
<text text-anchor="middle" x="180.977" y="-417.008" font-family="Times,serif" font-size="14.00" fill="blue">3</text>
</g>
<!-- r542 -->
<g id="node8" class="node"><title>r542</title>
<ellipse fill="none" stroke="black" cx="234" cy="-238" rx="30.3206" ry="18"/>
<text text-anchor="middle" x="234" y="-234.3" font-family="Times,serif" font-size="14.00">fib(2)</text>
</g>
<!-- r54&#45;&gt;r542 -->
<g id="edge13" class="edge"><title>r54&#45;&gt;r542:nw</title>
<path fill="none" stroke="black" d="M223.987,-330.869C213.768,-312.371 200.978,-281.972 212.951,-261.522"/>
<polygon fill="black" stroke="black" points="215.317,-263.04 218,-255 210.889,-259.612 215.317,-263.04"/>
</g>
<!-- r543 -->
<g id="node9" class="node"><title>r543</title>
<ellipse fill="none" stroke="black" cx="351" cy="-238" rx="30.3206" ry="18"/>
<text text-anchor="middle" x="351" y="-234.3" font-family="Times,serif" font-size="14.00">fib(3)</text>
</g>
<!-- r54&#45;&gt;r543 -->
<g id="edge14" class="edge"><title>r54&#45;&gt;r543:ne</title>
<path fill="none" stroke="black" d="M261.161,-339.989C307.58,-326.906 395.057,-296.85 372.119,-261.235"/>
<polygon fill="black" stroke="black" points="374.241,-259.406 367,-255 369.912,-262.96 374.241,-259.406"/>
</g>
<!-- r531&#45;&gt;r53 -->
<g id="edge6" class="edge"><title>r531&#45;&gt;r53</title>
<path fill="none" stroke="blue" d="M42.3171,-254.65C56.8025,-273.055 80.9541,-303.742 97.4082,-324.648"/>
<polygon fill="blue" stroke="blue" points="95.3099,-326.509 102.458,-331.064 99.7105,-323.046 95.3099,-326.509"/>
<text text-anchor="middle" x="84.6056" y="-318.348" font-family="Times,serif" font-size="14.00" fill="blue">1</text>
</g>
<!-- r532&#45;&gt;r53 -->
<g id="edge8" class="edge"><title>r532&#45;&gt;r53</title>
<path fill="none" stroke="blue" d="M109.962,-256.309C110.94,-273.928 112.469,-301.433 113.585,-321.536"/>
<polygon fill="blue" stroke="blue" points="110.796,-321.816 114.036,-329.648 116.388,-321.505 110.796,-321.816"/>
<text text-anchor="middle" x="104.591" y="-308.319" font-family="Times,serif" font-size="14.00" fill="blue">1</text>
</g>
<!-- r5320 -->
<g id="node6" class="node"><title>r5320</title>
<ellipse fill="none" stroke="black" cx="37" cy="-128" rx="30.3206" ry="18"/>
<text text-anchor="middle" x="37" y="-124.3" font-family="Times,serif" font-size="14.00">fib(0)</text>
</g>
<!-- r532&#45;&gt;r5320 -->
<g id="edge9" class="edge"><title>r532&#45;&gt;r5320:nw</title>
<path fill="none" stroke="black" d="M85.7759,-226.368C53.5056,-210.366 0.687414,-179.035 15.9666,-151.531"/>
<polygon fill="black" stroke="black" points="18.3344,-153.046 21,-145 13.8988,-149.627 18.3344,-153.046"/>
</g>
<!-- r5321 -->
<g id="node7" class="node"><title>r5321</title>
<ellipse fill="none" stroke="black" cx="116" cy="-128" rx="30.3206" ry="18"/>
<text text-anchor="middle" x="116" y="-124.3" font-family="Times,serif" font-size="14.00">fib(1)</text>
</g>
<!-- r532&#45;&gt;r5321 -->
<g id="edge11" class="edge"><title>r532&#45;&gt;r5321:ne</title>
<path fill="none" stroke="black" d="M120.569,-221.316C132.819,-202.879 148.857,-172.165 136.905,-151.374"/>
<polygon fill="black" stroke="black" points="139.098,-149.633 132,-145 134.66,-153.048 139.098,-149.633"/>
</g>
<!-- r5320&#45;&gt;r532 -->
<g id="edge10" class="edge"><title>r5320&#45;&gt;r532</title>
<path fill="none" stroke="blue" d="M47.6674,-145.001C59.8633,-163.295 79.9236,-193.385 93.7634,-214.145"/>
<polygon fill="blue" stroke="blue" points="91.6088,-215.961 98.3762,-221.064 96.2683,-212.855 91.6088,-215.961"/>
<text text-anchor="middle" x="81.2888" y="-206.971" font-family="Times,serif" font-size="14.00" fill="blue">0</text>
</g>
<!-- r5321&#45;&gt;r532 -->
<g id="edge12" class="edge"><title>r5321&#45;&gt;r532</title>
<path fill="none" stroke="blue" d="M114.878,-146.309C113.736,-163.928 111.953,-191.433 110.65,-211.536"/>
<polygon fill="blue" stroke="blue" points="107.848,-211.484 110.125,-219.648 113.436,-211.846 107.848,-211.484"/>
<text text-anchor="middle" x="102.862" y="-197.313" font-family="Times,serif" font-size="14.00" fill="blue">1</text>
</g>
<!-- r542&#45;&gt;r54 -->
<g id="edge15" class="edge"><title>r542&#45;&gt;r54</title>
<path fill="none" stroke="blue" d="M234,-256.309C234,-273.928 234,-301.433 234,-321.536"/>
<polygon fill="blue" stroke="blue" points="231.2,-321.648 234,-329.648 236.8,-321.648 231.2,-321.648"/>
<text text-anchor="middle" x="225.548" y="-307.822" font-family="Times,serif" font-size="14.00" fill="blue">1</text>
</g>
<!-- r5420 -->
<g id="node10" class="node"><title>r5420</title>
<ellipse fill="none" stroke="black" cx="195" cy="-128" rx="30.3206" ry="18"/>
<text text-anchor="middle" x="195" y="-124.3" font-family="Times,serif" font-size="14.00">fib(0)</text>
</g>
<!-- r542&#45;&gt;r5420 -->
<g id="edge19" class="edge"><title>r542&#45;&gt;r5420:nw</title>
<path fill="none" stroke="black" d="M215.673,-223.43C193.873,-205.881 161.865,-174.818 174.048,-151.619"/>
<polygon fill="black" stroke="black" points="176.45,-153.083 179,-145 171.966,-149.729 176.45,-153.083"/>
</g>
<!-- r5421 -->
<g id="node11" class="node"><title>r5421</title>
<ellipse fill="none" stroke="black" cx="274" cy="-128" rx="30.3206" ry="18"/>
<text text-anchor="middle" x="274" y="-124.3" font-family="Times,serif" font-size="14.00">fib(1)</text>
</g>
<!-- r542&#45;&gt;r5421 -->
<g id="edge20" class="edge"><title>r542&#45;&gt;r5421:ne</title>
<path fill="none" stroke="black" d="M252.575,-223.461C274.677,-205.946 307.154,-174.923 294.967,-151.646"/>
<polygon fill="black" stroke="black" points="297.032,-149.732 290,-145 292.547,-153.084 297.032,-149.732"/>
</g>
<!-- r543&#45;&gt;r54 -->
<g id="edge16" class="edge"><title>r543&#45;&gt;r54</title>
<path fill="none" stroke="blue" d="M335.097,-253.68C314.625,-272.577 278.951,-305.506 255.918,-326.768"/>
<polygon fill="blue" stroke="blue" points="253.758,-324.951 249.779,-332.435 257.557,-329.066 253.758,-324.951"/>
<text text-anchor="middle" x="257.365" y="-310.229" font-family="Times,serif" font-size="14.00" fill="blue">2</text>
</g>
<!-- r5431 -->
<g id="node12" class="node"><title>r5431</title>
<ellipse fill="none" stroke="black" cx="353" cy="-128" rx="30.3206" ry="18"/>
<text text-anchor="middle" x="353" y="-124.3" font-family="Times,serif" font-size="14.00">fib(1)</text>
</g>
<!-- r543&#45;&gt;r5431 -->
<g id="edge23" class="edge"><title>r543&#45;&gt;r5431:nw</title>
<path fill="none" stroke="black" d="M341.493,-220.848C331.826,-202.329 319.857,-171.908 331.942,-151.504"/>
<polygon fill="black" stroke="black" points="334.299,-153.034 337,-145 329.878,-149.596 334.299,-153.034"/>
</g>
<!-- r5432 -->
<g id="node13" class="node"><title>r5432</title>
<ellipse fill="none" stroke="black" cx="432" cy="-128" rx="30.3206" ry="18"/>
<text text-anchor="middle" x="432" y="-124.3" font-family="Times,serif" font-size="14.00">fib(2)</text>
</g>
<!-- r543&#45;&gt;r5432 -->
<g id="edge24" class="edge"><title>r543&#45;&gt;r5432:ne</title>
<path fill="none" stroke="black" d="M375.334,-227.107C410.48,-211.618 469.538,-180.418 453.074,-151.511"/>
<polygon fill="black" stroke="black" points="455.126,-149.589 448,-145 450.709,-153.031 455.126,-149.589"/>
</g>
<!-- r5420&#45;&gt;r542 -->
<g id="edge17" class="edge"><title>r5420&#45;&gt;r542</title>
<path fill="none" stroke="blue" d="M201.051,-145.757C207.502,-163.622 217.783,-192.09 225.145,-212.477"/>
<polygon fill="blue" stroke="blue" points="222.555,-213.552 227.906,-220.125 227.823,-211.65 222.555,-213.552"/>
<text text-anchor="middle" x="213.8" y="-202.247" font-family="Times,serif" font-size="14.00" fill="blue">0</text>
</g>
<!-- r5421&#45;&gt;r542 -->
<g id="edge18" class="edge"><title>r5421&#45;&gt;r542</title>
<path fill="none" stroke="blue" d="M267.794,-145.757C261.177,-163.622 250.633,-192.09 243.082,-212.477"/>
<polygon fill="blue" stroke="blue" points="240.403,-211.651 240.25,-220.125 245.654,-213.596 240.403,-211.651"/>
<text text-anchor="middle" x="238.619" y="-196.492" font-family="Times,serif" font-size="14.00" fill="blue">1</text>
</g>
<!-- r5431&#45;&gt;r543 -->
<g id="edge21" class="edge"><title>r5431&#45;&gt;r543</title>
<path fill="none" stroke="blue" d="M352.679,-146.309C352.353,-163.928 351.844,-191.433 351.472,-211.536"/>
<polygon fill="blue" stroke="blue" points="348.67,-211.597 351.321,-219.648 354.269,-211.701 348.67,-211.597"/>
<text text-anchor="middle" x="343.206" y="-197.668" font-family="Times,serif" font-size="14.00" fill="blue">1</text>
</g>
<!-- r5432&#45;&gt;r543 -->
<g id="edge22" class="edge"><title>r5432&#45;&gt;r543</title>
<path fill="none" stroke="blue" d="M420.262,-144.65C406.459,-163.055 383.444,-193.742 367.764,-214.648"/>
<polygon fill="blue" stroke="blue" points="365.512,-212.984 362.952,-221.064 369.992,-216.344 365.512,-212.984"/>
<text text-anchor="middle" x="367.066" y="-197.792" font-family="Times,serif" font-size="14.00" fill="blue">1</text>
</g>
<!-- r54320 -->
<g id="node14" class="node"><title>r54320</title>
<ellipse fill="none" stroke="black" cx="392" cy="-18" rx="30.3206" ry="18"/>
<text text-anchor="middle" x="392" y="-14.3" font-family="Times,serif" font-size="14.00">fib(0)</text>
</g>
<!-- r5432&#45;&gt;r54320 -->
<g id="edge27" class="edge"><title>r5432&#45;&gt;r54320:nw</title>
<path fill="none" stroke="black" d="M413.425,-113.461C391.323,-95.9456 358.846,-64.9233 371.033,-41.6463"/>
<polygon fill="black" stroke="black" points="373.453,-43.0843 376,-35 368.968,-39.7317 373.453,-43.0843"/>
</g>
<!-- r54321 -->
<g id="node15" class="node"><title>r54321</title>
<ellipse fill="none" stroke="black" cx="472" cy="-18" rx="30.3206" ry="18"/>
<text text-anchor="middle" x="472" y="-14.3" font-family="Times,serif" font-size="14.00">fib(1)</text>
</g>
<!-- r5432&#45;&gt;r54321 -->
<g id="edge28" class="edge"><title>r5432&#45;&gt;r54321:ne</title>
<path fill="none" stroke="black" d="M450.575,-113.461C472.677,-95.9456 505.154,-64.9233 492.967,-41.6463"/>
<polygon fill="black" stroke="black" points="495.032,-39.7317 488,-35 490.547,-43.0843 495.032,-39.7317"/>
</g>
<!-- r54320&#45;&gt;r5432 -->
<g id="edge25" class="edge"><title>r54320&#45;&gt;r5432</title>
<path fill="none" stroke="blue" d="M398.206,-35.7565C404.823,-53.6216 415.367,-82.0905 422.918,-102.477"/>
<polygon fill="blue" stroke="blue" points="420.346,-103.596 425.75,-110.125 425.597,-101.651 420.346,-103.596"/>
<text text-anchor="middle" x="411.528" y="-92.3628" font-family="Times,serif" font-size="14.00" fill="blue">0</text>
</g>
<!-- r54321&#45;&gt;r5432 -->
<g id="edge26" class="edge"><title>r54321&#45;&gt;r5432</title>
<path fill="none" stroke="blue" d="M465.794,-35.7565C459.177,-53.6216 448.633,-82.0905 441.082,-102.477"/>
<polygon fill="blue" stroke="blue" points="438.403,-101.651 438.25,-110.125 443.654,-103.596 438.403,-101.651"/>
<text text-anchor="middle" x="436.619" y="-86.4916" font-family="Times,serif" font-size="14.00" fill="blue">1</text>
</g>
</g>
</svg>
