<?xml version="1.0" encoding="UTF-8" standalone="no"?>
<!DOCTYPE svg PUBLIC "-//W3C//DTD SVG 1.1//EN"
 "http://www.w3.org/Graphics/SVG/1.1/DTD/svg11.dtd">
<!-- Generated by graphviz version 2.34.0 (20140110.0949)
 -->
<!-- Title: models_diagram Pages: 1 -->
<svg width="232pt" height="134pt"
 viewBox="0.00 0.00 232.00 134.00" xmlns="http://www.w3.org/2000/svg" xmlns:xlink="http://www.w3.org/1999/xlink">
<g id="graph0" class="graph" transform="scale(1 1) rotate(0) translate(4 130)">
<title>models_diagram</title>
<polygon fill="white" stroke="white" points="-4,4 -4,-130 228,-130 228,4 -4,4"/>
<!-- root -->
<g id="node1" class="node"><title>root</title>
<ellipse fill="none" stroke="black" cx="112" cy="-99" rx="112.145" ry="26.7407"/>
<text text-anchor="middle" x="112" y="-102.8" font-family="Times,serif" font-size="14.00">Базисные схемы</text>
<text text-anchor="middle" x="112" y="-87.8" font-family="Times,serif" font-size="14.00"> обработки информации</text>
</g>
<!-- recursion -->
<g id="node2" class="node"><title>recursion</title>
<ellipse fill="none" stroke="black" cx="56" cy="-18" rx="46.2191" ry="18"/>
<text text-anchor="middle" x="56" y="-14.3" font-family="Times,serif" font-size="14.00">Рекурсия</text>
</g>
<!-- root&#45;&gt;recursion -->
<g id="edge1" class="edge"><title>root&#45;&gt;recursion</title>
<path fill="none" stroke="black" d="M93.6635,-72.1324C87.1851,-62.9933 79.9201,-52.7445 73.5119,-43.7043"/>
<polygon fill="black" stroke="black" points="76.3225,-41.617 67.684,-35.4828 70.6117,-45.6652 76.3225,-41.617"/>
</g>
<!-- iteration -->
<g id="node3" class="node"><title>iteration</title>
<ellipse fill="none" stroke="black" cx="168" cy="-18" rx="47.169" ry="18"/>
<text text-anchor="middle" x="168" y="-14.3" font-family="Times,serif" font-size="14.00">Итерация</text>
</g>
<!-- root&#45;&gt;iteration -->
<g id="edge2" class="edge"><title>root&#45;&gt;iteration</title>
<path fill="none" stroke="black" d="M130.336,-72.1324C136.815,-62.9933 144.08,-52.7445 150.488,-43.7043"/>
<polygon fill="black" stroke="black" points="153.388,-45.6652 156.316,-35.4828 147.677,-41.617 153.388,-45.6652"/>
</g>
</g>
</svg>
